<?xml version="1.0" encoding="UTF-8"?><svg id="Layer_1" xmlns="http://www.w3.org/2000/svg" viewBox="0 0 408.14 316.77"><path d="M377.33,269.97l-.9,.35c-5.11,1.97-10.13,2.61-14.1,1.8-4.68-.96-8.64-4.12-12.12-9.67-3.4-5.42-5.25-14.62-5.37-26.64,9.96-15.28,20.29-32.42,29.1-48.36,31.73-57.3,31.84-75.77,27.24-87.2-3.5-8.7-11.17-14.59-20.5-15.75-14.88-1.84-28.78,7.21-41.32,26.9-13.1,20.56-24.82,52.74-30.59,83.99-1.79,9.71-2.98,19.09-3.53,27.89-4.02,5.92-7.41,10.59-9.8,13.54-27.46,33.86-42.65,39.61-49.26,40.03-2.15,.14-4.59-.17-7.93-3.37-4.24-4.08-8.47-25.62,5.86-78.01,9.78-35.79,23.46-68.67,24.67-71.56,.03-.08,.06-.14,.09-.21h0l.61-1.44-.11-.05v-.02s-18.22-7.72-18.22-7.72l-16.97-7.21-1.39-.57h0s-.05-.02-.05-.02l-.6,1.41-.67,1.44,.05,.02c-50,117.77-76.15,143.17-98.64,159.04-10.06,7.11-15.39,9.13-21.94,8.34-4.17-.51-6.38-1.85-8.48-5.13-7.83-12.26,2.73-32.41,14.95-55.72,1.72-3.29,3.48-6.65,5.24-10.07,3.91-7.61,7.95-15.49,11.75-23.48,13.08-27.53,13.69-51.23,1.86-72.46-8.71-15.62-23.68-25.35-42.14-27.39-36.52-4.05-62.93,25.46-71.6,35.17l-1.04,1.16,29.75,26.61,1.03-1.17c14.58-16.3,26.48-23.32,37.47-22.11,5.74,.64,9.23,2.77,11.67,7.16,5.23,9.38,4.28,20.45-3.05,35.89-2.52,5.3-5.16,10.54-7.44,15.02l-.29,.57h0s-.36,.71-.36,.71c-1.04,2.04-2.08,4.08-3.11,6.09l-1.35,2.61c-17.38,33.83-33.79,65.8-19.05,98.41,3.91,8.64,14.31,20.32,30.79,24.8,4.47,1.22,9.17,1.84,13.97,1.84,14.36,0,29.3-5.41,44.41-16.07,11.54-8.14,24.16-18.21,38.57-36.42v.07l.08-.11c1.33,17.35,6.58,30.24,16.03,39.31,9.89,9.5,21.94,14.52,34.88,14.52,1.05,0,2.12-.03,3.17-.1,20.27-1.26,41.34-14.06,64.4-39.13,1.02,2.15,2.15,4.19,3.35,6.11,9.32,14.87,22.44,24.41,37.94,27.57,24.99,5.1,46.27-7.86,52.2-11.96l1.61-1.11-30.81-28.18Z"/></svg>